<?xml version="1.0" ?><svg version="1.1" xmlns="http://www.w3.org/2000/svg" width="250" height="250" viewBox="0 0 32 32">
<path style="fill:#cd1818" d="M9.152 0q0.224 0 0.384 0.16t0.192 0.416v26.272q0 0.352-0.32 0.512l-8.576 4.576q-0.128 0.064-0.256 0.064-0.224 0-0.416-0.16t-0.16-0.416v-26.272q0-0.352 0.32-0.512l8.544-4.576q0.128-0.064 0.288-0.064zM31.424 0q0.224 0 0.416 0.16t0.16 0.416v26.272q0 0.352-0.288 0.512l-8.576 4.576q-0.128 0.064-0.288 0.064-0.224 0-0.384-0.16t-0.192-0.416v-26.272q0-0.352 0.32-0.512l8.576-4.576q0.128-0.064 0.256-0.064zM11.424 0q0.16 0 0.256 0.064l9.152 4.544q0.32 0.192 0.32 0.544v26.272q0 0.224-0.192 0.416t-0.384 0.16q-0.16 0-0.256-0.064l-9.152-4.544q-0.32-0.192-0.32-0.544v-26.272q0-0.224 0.192-0.416t0.384-0.16z"></path>
</svg>