<?xml version="1.0" ?><svg version="1.1" xmlns="http://www.w3.org/2000/svg" width="250" height="250" viewBox="0 0 33 32">
<path style="fill:#cd1818" d="M0 25.216v-18.432q0-0.032 0.096-0.608l10.848 9.28-10.816 10.4q-0.128-0.448-0.128-0.64zM1.44 4.896q0.224-0.096 0.544-0.096h29.216q0.288 0 0.576 0.096l-10.88 9.312-1.44 1.152-2.848 2.336-2.848-2.336-1.44-1.152zM1.472 27.104l10.912-10.464 4.224 3.424 4.224-3.424 10.912 10.464q-0.256 0.096-0.544 0.096h-29.216q-0.256 0-0.512-0.096zM22.272 15.456l10.816-9.28q0.096 0.288 0.096 0.608v18.432q0 0.288-0.096 0.64z"></path>
</svg>