<?xml version="1.0" ?><svg version="1.1" xmlns="http://www.w3.org/2000/svg" width="250" height="250" viewBox="0 0 37 32">
<path style="fill:#cd1818" d="M32.576 16q1.664 0 2.816 1.184t1.184 2.816v6.848q0 0.256-0.16 0.416t-0.416 0.16h-1.728v1.152q0 1.44-0.992 2.432t-2.432 0.992-2.432-0.992-0.992-2.432v-1.152h-18.272v1.152q0 1.44-0.992 2.432t-2.432 0.992-2.432-0.992-1.024-2.432v-1.152h-1.696q-0.256 0-0.416-0.16t-0.16-0.416v-6.848q0-1.664 1.184-2.816t2.816-1.184h0.512l1.856-7.488q0.416-1.664 1.856-2.816t3.2-1.12h2.304v-4q0-0.256 0.16-0.416t0.384-0.16h8q0.256 0 0.416 0.16t0.16 0.416v4h2.304q1.728 0 3.2 1.12t1.856 2.816l1.856 7.488h0.512zM5.728 24.576q1.152 0 2.016-0.832t0.832-2.016-0.832-2.048-2.016-0.832-2.016 0.832-0.864 2.048 0.864 2.016 2.016 0.832zM9.216 16h18.144l-1.6-6.368q-0.032-0.16-0.256-0.32t-0.352-0.16h-13.728q-0.16 0-0.384 0.16t-0.224 0.32zM30.848 24.576q1.184 0 2.016-0.832t0.864-2.016-0.864-2.048-2.016-0.832-2.016 0.832-0.832 2.048 0.832 2.016 2.016 0.832z"></path>
</svg>